<mxfile host="drawio-plugin" modified="2022-04-04T12:36:52.273Z" agent="5.0 (Windows NT 6.2; Win64; x64) AppleWebKit/537.36 (KHTML, like Gecko) Chrome/97.0.4692.45 Safari/537.36" etag="CJz7vuJI7TvEP-y34-p7" version="15.5.4" type="embed" pages="6"><diagram id="-3Yy-TYMAuLTSkLfquR8" name="Sitemap"><mxGraphModel dx="1165" dy="735" grid="1" gridSize="10" guides="1" tooltips="1" connect="1" arrows="1" fold="1" page="1" pageScale="1" pageWidth="850" pageHeight="1100" math="0" shadow="0"><root><mxCell id="0"/><mxCell id="1" parent="0"/><mxCell id="KStdMO3Gt_MZMxLuZqEU-14" style="edgeStyle=orthogonalEdgeStyle;rounded=0;orthogonalLoop=1;jettySize=auto;html=1;exitX=0.5;exitY=1;exitDx=0;exitDy=0;exitPerimeter=0;entryX=0.5;entryY=0;entryDx=0;entryDy=0;entryPerimeter=0;fillColor=#dae8fc;strokeColor=#6c8ebf;strokeWidth=2;endArrow=none;endFill=0;" parent="1" source="KStdMO3Gt_MZMxLuZqEU-4" target="KStdMO3Gt_MZMxLuZqEU-5" edge="1"><mxGeometry relative="1" as="geometry"/></mxCell><mxCell id="KStdMO3Gt_MZMxLuZqEU-16" style="edgeStyle=orthogonalEdgeStyle;rounded=0;orthogonalLoop=1;jettySize=auto;html=1;exitX=0.5;exitY=1;exitDx=0;exitDy=0;exitPerimeter=0;entryX=0.5;entryY=0;entryDx=0;entryDy=0;entryPerimeter=0;fillColor=#dae8fc;strokeColor=#6c8ebf;strokeWidth=2;endArrow=none;endFill=0;" parent="1" source="KStdMO3Gt_MZMxLuZqEU-4" target="KStdMO3Gt_MZMxLuZqEU-7" edge="1"><mxGeometry relative="1" as="geometry"/></mxCell><mxCell id="KStdMO3Gt_MZMxLuZqEU-17" style="edgeStyle=orthogonalEdgeStyle;rounded=0;orthogonalLoop=1;jettySize=auto;html=1;exitX=0.5;exitY=1;exitDx=0;exitDy=0;exitPerimeter=0;fillColor=#dae8fc;strokeColor=#6c8ebf;strokeWidth=2;endArrow=none;endFill=0;" parent="1" source="KStdMO3Gt_MZMxLuZqEU-4" target="KStdMO3Gt_MZMxLuZqEU-6" edge="1"><mxGeometry relative="1" as="geometry"/></mxCell><mxCell id="KStdMO3Gt_MZMxLuZqEU-4" value="Home" style="html=1;strokeColor=none;fillColor=#0079D6;labelPosition=center;verticalLabelPosition=middle;verticalAlign=top;align=center;fontSize=12;outlineConnect=0;spacingTop=-6;fontColor=#FFFFFF;sketch=0;shape=mxgraph.sitemap.home;" parent="1" vertex="1"><mxGeometry x="320" y="120" width="120" height="70" as="geometry"/></mxCell><mxCell id="KStdMO3Gt_MZMxLuZqEU-15" style="edgeStyle=orthogonalEdgeStyle;rounded=0;orthogonalLoop=1;jettySize=auto;html=1;exitX=0.5;exitY=1;exitDx=0;exitDy=0;exitPerimeter=0;entryX=0.5;entryY=0;entryDx=0;entryDy=0;entryPerimeter=0;fillColor=#dae8fc;strokeColor=#6c8ebf;strokeWidth=2;endArrow=none;endFill=0;" parent="1" source="KStdMO3Gt_MZMxLuZqEU-5" target="KStdMO3Gt_MZMxLuZqEU-8" edge="1"><mxGeometry relative="1" as="geometry"/></mxCell><mxCell id="KStdMO3Gt_MZMxLuZqEU-5" value="List" style="html=1;strokeColor=none;fillColor=#0079D6;labelPosition=center;verticalLabelPosition=middle;verticalAlign=top;align=center;fontSize=12;outlineConnect=0;spacingTop=-6;fontColor=#FFFFFF;sketch=0;shape=mxgraph.sitemap.document;" parent="1" vertex="1"><mxGeometry x="320" y="240" width="120" height="70" as="geometry"/></mxCell><mxCell id="KStdMO3Gt_MZMxLuZqEU-6" value="About" style="html=1;strokeColor=none;fillColor=#0079D6;labelPosition=center;verticalLabelPosition=middle;verticalAlign=top;align=center;fontSize=12;outlineConnect=0;spacingTop=-6;fontColor=#FFFFFF;sketch=0;shape=mxgraph.sitemap.info;" parent="1" vertex="1"><mxGeometry x="160" y="240" width="120" height="70" as="geometry"/></mxCell><mxCell id="KStdMO3Gt_MZMxLuZqEU-7" value="Create" style="html=1;strokeColor=none;fillColor=#0079D6;labelPosition=center;verticalLabelPosition=middle;verticalAlign=top;align=center;fontSize=12;outlineConnect=0;spacingTop=-6;fontColor=#FFFFFF;sketch=0;shape=mxgraph.sitemap.form;" parent="1" vertex="1"><mxGeometry x="480" y="240" width="120" height="70" as="geometry"/></mxCell><mxCell id="KStdMO3Gt_MZMxLuZqEU-8" value="Candidate" style="html=1;strokeColor=none;fillColor=#0079D6;labelPosition=center;verticalLabelPosition=middle;verticalAlign=top;align=center;fontSize=12;outlineConnect=0;spacingTop=-6;fontColor=#FFFFFF;sketch=0;shape=mxgraph.sitemap.contact;" parent="1" vertex="1"><mxGeometry x="320" y="360" width="120" height="70" as="geometry"/></mxCell></root></mxGraphModel></diagram><diagram id="0JaGlbyu01CiIHgwsm6n" name="Home"><mxGraphModel dx="1165" dy="735" grid="1" gridSize="10" guides="1" tooltips="1" connect="1" arrows="1" fold="1" page="1" pageScale="1" pageWidth="850" pageHeight="1100" math="0" shadow="0"><root><mxCell id="0"/><mxCell id="1" parent="0"/><mxCell id="jzqrTENw04v6RTgMilp0-1" value="" style="strokeWidth=1;shadow=0;dashed=0;align=center;html=1;shape=mxgraph.mockup.containers.browserWindow;rSize=0;strokeColor=#666666;strokeColor2=#008cff;strokeColor3=#c4c4c4;mainText=,;recursiveResize=0;" parent="1" vertex="1"><mxGeometry x="40" y="80" width="800" height="560" as="geometry"/></mxCell><mxCell id="jzqrTENw04v6RTgMilp0-2" value="Home" style="strokeWidth=1;shadow=0;dashed=0;align=center;html=1;shape=mxgraph.mockup.containers.anchor;fontSize=17;fontColor=#666666;align=left;" parent="jzqrTENw04v6RTgMilp0-1" vertex="1"><mxGeometry x="60" y="12" width="110" height="26" as="geometry"/></mxCell><mxCell id="jzqrTENw04v6RTgMilp0-3" value="https://example.org" style="strokeWidth=1;shadow=0;dashed=0;align=center;html=1;shape=mxgraph.mockup.containers.anchor;rSize=0;fontSize=17;fontColor=#666666;align=left;" parent="jzqrTENw04v6RTgMilp0-1" vertex="1"><mxGeometry x="130" y="60" width="250" height="26" as="geometry"/></mxCell><mxCell id="jzqrTENw04v6RTgMilp0-11" value="" style="html=1;shadow=0;dashed=0;fillColor=#343A40;strokeColor=none;fontSize=16;fontColor=#ffffff;align=left;spacing=15;" parent="jzqrTENw04v6RTgMilp0-1" vertex="1"><mxGeometry y="110" width="800" height="60" as="geometry"/></mxCell><mxCell id="jzqrTENw04v6RTgMilp0-12" value="Home" style="fillColor=none;strokeColor=none;fontSize=14;fontColor=#ffffff;align=center;" parent="jzqrTENw04v6RTgMilp0-11" vertex="1"><mxGeometry width="70" height="40" relative="1" as="geometry"><mxPoint x="70" y="10" as="offset"/></mxGeometry></mxCell><mxCell id="jzqrTENw04v6RTgMilp0-13" value="Create" style="fillColor=none;strokeColor=none;fontSize=14;fontColor=#9A9DA0;align=center;" parent="jzqrTENw04v6RTgMilp0-11" vertex="1"><mxGeometry width="70" height="40" relative="1" as="geometry"><mxPoint x="140" y="10" as="offset"/></mxGeometry></mxCell><mxCell id="jzqrTENw04v6RTgMilp0-14" value="About" style="fillColor=none;strokeColor=none;fontSize=14;fontColor=#9A9DA0;align=center;spacingRight=0;" parent="jzqrTENw04v6RTgMilp0-11" vertex="1"><mxGeometry width="80" height="40" relative="1" as="geometry"><mxPoint x="210" y="10" as="offset"/></mxGeometry></mxCell><mxCell id="jzqrTENw04v6RTgMilp0-18" value="" style="verticalLabelPosition=bottom;shadow=0;dashed=0;align=center;html=1;verticalAlign=top;strokeWidth=1;shape=mxgraph.mockup.graphics.simpleIcon;strokeColor=#999999;fontColor=#9A9DA0;" parent="jzqrTENw04v6RTgMilp0-11" vertex="1"><mxGeometry x="20" y="20" width="40" height="20" as="geometry"/></mxCell><mxCell id="jzqrTENw04v6RTgMilp0-26" value="&amp;nbsp; &amp;nbsp; &amp;nbsp; &amp;nbsp; &amp;nbsp; &amp;nbsp; &amp;nbsp; &amp;nbsp; &amp;nbsp; &amp;nbsp; &amp;nbsp; &amp;nbsp; &amp;nbsp; &amp;nbsp; &amp;nbsp; &amp;nbsp; &amp;nbsp; Enter keyword.." style="html=1;shadow=0;dashed=0;shape=mxgraph.bootstrap.rrect;rSize=5;strokeColor=#CED4DA;html=1;whiteSpace=wrap;fillColor=#FFFFFF;fontColor=#7D868C;align=left;spacing=15;spacingLeft=80;fontSize=14;" parent="jzqrTENw04v6RTgMilp0-1" vertex="1"><mxGeometry x="60" y="220" width="670" height="40" as="geometry"/></mxCell><mxCell id="jzqrTENw04v6RTgMilp0-27" value="Add" style="html=1;shadow=0;dashed=0;shape=mxgraph.bootstrap.leftButton;strokeColor=#CED4DA;gradientColor=inherit;fontColor=inherit;fillColor=#E9ECEF;rSize=5;perimeter=none;whiteSpace=wrap;resizeHeight=1;fontSize=14;align=center;spacing=15;" parent="jzqrTENw04v6RTgMilp0-26" vertex="1"><mxGeometry width="60" height="40" relative="1" as="geometry"><mxPoint x="530" as="offset"/></mxGeometry></mxCell><mxCell id="jzqrTENw04v6RTgMilp0-28" value="Search" style="html=1;shadow=0;dashed=0;shape=mxgraph.bootstrap.rightButton;strokeColor=#CED4DA;gradientColor=inherit;fontColor=inherit;fillColor=#E9ECEF;rSize=5;perimeter=none;whiteSpace=wrap;resizeHeight=1;fontSize=14;align=center;spacing=15;" parent="jzqrTENw04v6RTgMilp0-26" vertex="1"><mxGeometry x="1" width="80" height="40" relative="1" as="geometry"><mxPoint x="-80" as="offset"/></mxGeometry></mxCell><mxCell id="jzqrTENw04v6RTgMilp0-30" value="Python&amp;nbsp; X" style="html=1;shadow=0;dashed=0;shape=mxgraph.bootstrap.rrect;rSize=5;strokeColor=none;strokeWidth=1;fillColor=#0085FC;fontColor=#FFFFFF;whiteSpace=wrap;align=left;verticalAlign=middle;spacingLeft=0;fontStyle=1;fontSize=14;spacing=5;" parent="jzqrTENw04v6RTgMilp0-26" vertex="1"><mxGeometry x="10" y="10" width="80" height="20" as="geometry"/></mxCell><mxCell id="jzqrTENw04v6RTgMilp0-29" value="Development&amp;nbsp; X" style="html=1;shadow=0;dashed=0;shape=mxgraph.bootstrap.rrect;rSize=5;strokeColor=none;strokeWidth=1;fillColor=#0085FC;fontColor=#FFFFFF;whiteSpace=wrap;align=left;verticalAlign=middle;spacingLeft=0;fontStyle=1;fontSize=14;spacing=5;" parent="jzqrTENw04v6RTgMilp0-26" vertex="1"><mxGeometry x="100" y="10" width="120" height="20" as="geometry"/></mxCell><mxCell id="jzqrTENw04v6RTgMilp0-31" value="&lt;font color=&quot;#6c767d&quot;&gt;&lt;b&gt;&lt;font style=&quot;font-size: 14px&quot;&gt;Friday, April 1&lt;br&gt;&lt;/font&gt;&lt;/b&gt;&lt;/font&gt;&lt;br style=&quot;font-size: 14px&quot;&gt;Java, Project management, Master's degree" style="html=1;shadow=0;dashed=0;shape=mxgraph.bootstrap.rrect;rSize=5;strokeColor=#DFDFDF;html=1;whiteSpace=wrap;fillColor=#ffffff;fontColor=#000000;verticalAlign=top;align=left;spacing=20;fontSize=14;" parent="jzqrTENw04v6RTgMilp0-1" vertex="1"><mxGeometry x="60" y="350" width="250" height="190" as="geometry"/></mxCell><mxCell id="jzqrTENw04v6RTgMilp0-32" value="Repeat search" style="html=1;shadow=0;dashed=0;shape=mxgraph.bootstrap.rrect;rSize=5;perimeter=none;whiteSpace=wrap;fillColor=none;strokeColor=none;fontColor=#0085FC;resizeWidth=1;fontSize=14;align=center;" parent="jzqrTENw04v6RTgMilp0-31" vertex="1"><mxGeometry y="1" width="100" height="40" relative="1" as="geometry"><mxPoint x="10" y="-50" as="offset"/></mxGeometry></mxCell><mxCell id="jzqrTENw04v6RTgMilp0-33" value="See results (27)" style="html=1;shadow=0;dashed=0;shape=mxgraph.bootstrap.rrect;rSize=5;perimeter=none;whiteSpace=wrap;fillColor=none;strokeColor=none;fontColor=#0085FC;resizeWidth=1;fontSize=14;align=center;" parent="jzqrTENw04v6RTgMilp0-31" vertex="1"><mxGeometry y="1" width="150" height="40" relative="1" as="geometry"><mxPoint x="100" y="-50" as="offset"/></mxGeometry></mxCell><mxCell id="jzqrTENw04v6RTgMilp0-34" value="&lt;div&gt;&lt;b style=&quot;color: rgb(0 , 0 , 0) ; font-size: 14px&quot;&gt;&lt;font style=&quot;font-size: 20px&quot;&gt;Previous searches&lt;/font&gt;&lt;/b&gt;&lt;/div&gt;" style="text;html=1;strokeColor=none;fillColor=none;align=left;verticalAlign=middle;whiteSpace=wrap;rounded=0;fontColor=#9A9DA0;" parent="jzqrTENw04v6RTgMilp0-1" vertex="1"><mxGeometry x="60" y="290" width="300" height="30" as="geometry"/></mxCell></root></mxGraphModel></diagram><diagram name="Create" id="xomamZC-822ABOHvRa7e"><mxGraphModel dx="1165" dy="735" grid="1" gridSize="10" guides="1" tooltips="1" connect="1" arrows="1" fold="1" page="1" pageScale="1" pageWidth="850" pageHeight="1100" math="0" shadow="0"><root><mxCell id="0"/><mxCell id="1" parent="0"/><mxCell id="2" value="" style="strokeWidth=1;shadow=0;dashed=0;align=center;html=1;shape=mxgraph.mockup.containers.browserWindow;rSize=0;strokeColor=#666666;strokeColor2=#008cff;strokeColor3=#c4c4c4;mainText=,;recursiveResize=0;" parent="1" vertex="1"><mxGeometry x="40" y="80" width="800" height="560" as="geometry"/></mxCell><mxCell id="3" value="Create" style="strokeWidth=1;shadow=0;dashed=0;align=center;html=1;shape=mxgraph.mockup.containers.anchor;fontSize=17;fontColor=#666666;align=left;" parent="2" vertex="1"><mxGeometry x="60" y="12" width="110" height="26" as="geometry"/></mxCell><mxCell id="4" value="https://example.org/#create" style="strokeWidth=1;shadow=0;dashed=0;align=center;html=1;shape=mxgraph.mockup.containers.anchor;rSize=0;fontSize=17;fontColor=#666666;align=left;" parent="2" vertex="1"><mxGeometry x="130" y="60" width="250" height="26" as="geometry"/></mxCell><mxCell id="5" value="" style="html=1;shadow=0;dashed=0;fillColor=#343A40;strokeColor=none;fontSize=16;fontColor=#ffffff;align=left;spacing=15;" parent="2" vertex="1"><mxGeometry y="110" width="800" height="60" as="geometry"/></mxCell><mxCell id="6" value="Home" style="fillColor=none;strokeColor=none;fontSize=14;fontColor=#9A9DA0;align=center;" parent="5" vertex="1"><mxGeometry width="70" height="40" relative="1" as="geometry"><mxPoint x="70" y="10" as="offset"/></mxGeometry></mxCell><mxCell id="7" value="Create" style="fillColor=none;strokeColor=none;fontSize=14;fontColor=#FFFFFF;align=center;" parent="5" vertex="1"><mxGeometry width="70" height="40" relative="1" as="geometry"><mxPoint x="140" y="10" as="offset"/></mxGeometry></mxCell><mxCell id="8" value="About" style="fillColor=none;strokeColor=none;fontSize=14;fontColor=#9A9DA0;align=center;spacingRight=0;" parent="5" vertex="1"><mxGeometry width="80" height="40" relative="1" as="geometry"><mxPoint x="210" y="10" as="offset"/></mxGeometry></mxCell><mxCell id="9" value="" style="verticalLabelPosition=bottom;shadow=0;dashed=0;align=center;html=1;verticalAlign=top;strokeWidth=1;shape=mxgraph.mockup.graphics.simpleIcon;strokeColor=#999999;fontColor=#9A9DA0;" parent="5" vertex="1"><mxGeometry x="20" y="20" width="40" height="20" as="geometry"/></mxCell><mxCell id="TuXpz73XYoZc6Wn1MBvJ-22" value="Cancel" style="html=1;shadow=0;dashed=0;shape=mxgraph.bootstrap.rrect;rSize=5;strokeColor=none;strokeWidth=1;fillColor=#6C767D;fontColor=#FFFFFF;whiteSpace=wrap;align=center;verticalAlign=middle;spacingLeft=0;fontStyle=0;fontSize=16;spacing=5;" parent="2" vertex="1"><mxGeometry x="385" y="390" width="100" height="40" as="geometry"/></mxCell><mxCell id="TuXpz73XYoZc6Wn1MBvJ-21" value="Save" style="html=1;shadow=0;dashed=0;shape=mxgraph.bootstrap.rrect;rSize=5;strokeColor=none;strokeWidth=1;fillColor=#0085FC;fontColor=#FFFFFF;whiteSpace=wrap;align=center;verticalAlign=middle;spacingLeft=0;fontStyle=0;fontSize=16;spacing=5;" parent="2" vertex="1"><mxGeometry x="290" y="390" width="80" height="40" as="geometry"/></mxCell><mxCell id="TuXpz73XYoZc6Wn1MBvJ-18" value="Example file input" style="fillColor=none;strokeColor=none;align=left;fontSize=14;fontColor=#9A9DA0;" parent="1" vertex="1"><mxGeometry x="330" y="380" width="150" height="40" as="geometry"/></mxCell><mxCell id="TuXpz73XYoZc6Wn1MBvJ-19" value="Choose File" style="fillColor=#FEFEFE;strokeColor=#AAAAAA;fontSize=14;gradientColor=#F0F0F0;fontColor=#9A9DA0;" parent="1" vertex="1"><mxGeometry x="330" y="420" width="90" height="30" as="geometry"/></mxCell><mxCell id="TuXpz73XYoZc6Wn1MBvJ-20" value="No file chosen" style="fillColor=none;strokeColor=none;align=left;fontSize=14;spacing=5;fontColor=#9A9DA0;" parent="1" vertex="1"><mxGeometry x="420" y="420" width="100" height="30" as="geometry"/></mxCell></root></mxGraphModel></diagram><diagram name="List" id="ZctlYjJJNEzZi77SYKOy"><mxGraphModel dx="1165" dy="735" grid="1" gridSize="10" guides="1" tooltips="1" connect="1" arrows="1" fold="1" page="1" pageScale="1" pageWidth="850" pageHeight="1100" math="0" shadow="0"><root><mxCell id="0"/><mxCell id="1" parent="0"/><mxCell id="2" value="&lt;i&gt;TODO&lt;/i&gt;" style="strokeWidth=1;shadow=0;dashed=0;align=center;html=1;shape=mxgraph.mockup.containers.browserWindow;rSize=0;strokeColor=#666666;strokeColor2=#008cff;strokeColor3=#c4c4c4;mainText=,;recursiveResize=0;" parent="1" vertex="1"><mxGeometry x="40" y="80" width="800" height="560" as="geometry"/></mxCell><mxCell id="3" value="List" style="strokeWidth=1;shadow=0;dashed=0;align=center;html=1;shape=mxgraph.mockup.containers.anchor;fontSize=17;fontColor=#666666;align=left;" parent="2" vertex="1"><mxGeometry x="60" y="12" width="110" height="26" as="geometry"/></mxCell><mxCell id="4" value="https://example.org/#list" style="strokeWidth=1;shadow=0;dashed=0;align=center;html=1;shape=mxgraph.mockup.containers.anchor;rSize=0;fontSize=17;fontColor=#666666;align=left;" parent="2" vertex="1"><mxGeometry x="130" y="60" width="250" height="26" as="geometry"/></mxCell><mxCell id="5" value="" style="html=1;shadow=0;dashed=0;fillColor=#343A40;strokeColor=none;fontSize=16;fontColor=#ffffff;align=left;spacing=15;" parent="2" vertex="1"><mxGeometry y="110" width="800" height="60" as="geometry"/></mxCell><mxCell id="6" value="Home" style="fillColor=none;strokeColor=none;fontSize=14;fontColor=#ffffff;align=center;" parent="5" vertex="1"><mxGeometry width="70" height="40" relative="1" as="geometry"><mxPoint x="70" y="10" as="offset"/></mxGeometry></mxCell><mxCell id="7" value="Create" style="fillColor=none;strokeColor=none;fontSize=14;fontColor=#9A9DA0;align=center;" parent="5" vertex="1"><mxGeometry width="70" height="40" relative="1" as="geometry"><mxPoint x="140" y="10" as="offset"/></mxGeometry></mxCell><mxCell id="8" value="About" style="fillColor=none;strokeColor=none;fontSize=14;fontColor=#9A9DA0;align=center;spacingRight=0;" parent="5" vertex="1"><mxGeometry width="80" height="40" relative="1" as="geometry"><mxPoint x="210" y="10" as="offset"/></mxGeometry></mxCell><mxCell id="9" value="" style="verticalLabelPosition=bottom;shadow=0;dashed=0;align=center;html=1;verticalAlign=top;strokeWidth=1;shape=mxgraph.mockup.graphics.simpleIcon;strokeColor=#999999;fontColor=#9A9DA0;" parent="5" vertex="1"><mxGeometry x="20" y="20" width="40" height="20" as="geometry"/></mxCell></root></mxGraphModel></diagram><diagram name="Candidate" id="hGdOQWt-vb_XZ-b8x8ue"><mxGraphModel dx="1165" dy="735" grid="1" gridSize="10" guides="1" tooltips="1" connect="1" arrows="1" fold="1" page="1" pageScale="1" pageWidth="850" pageHeight="1100" math="0" shadow="0"><root><mxCell id="0"/><mxCell id="1" parent="0"/><mxCell id="2" value="&lt;i&gt;TODO&lt;/i&gt;" style="strokeWidth=1;shadow=0;dashed=0;align=center;html=1;shape=mxgraph.mockup.containers.browserWindow;rSize=0;strokeColor=#666666;strokeColor2=#008cff;strokeColor3=#c4c4c4;mainText=,;recursiveResize=0;" parent="1" vertex="1"><mxGeometry x="40" y="80" width="800" height="560" as="geometry"/></mxCell><mxCell id="3" value="Candidate" style="strokeWidth=1;shadow=0;dashed=0;align=center;html=1;shape=mxgraph.mockup.containers.anchor;fontSize=17;fontColor=#666666;align=left;" parent="2" vertex="1"><mxGeometry x="60" y="12" width="110" height="26" as="geometry"/></mxCell><mxCell id="4" value="https://example.org/#candidate?id=abc123" style="strokeWidth=1;shadow=0;dashed=0;align=center;html=1;shape=mxgraph.mockup.containers.anchor;rSize=0;fontSize=17;fontColor=#666666;align=left;" parent="2" vertex="1"><mxGeometry x="130" y="60" width="250" height="26" as="geometry"/></mxCell><mxCell id="5" value="" style="html=1;shadow=0;dashed=0;fillColor=#343A40;strokeColor=none;fontSize=16;fontColor=#ffffff;align=left;spacing=15;" parent="2" vertex="1"><mxGeometry y="110" width="800" height="60" as="geometry"/></mxCell><mxCell id="6" value="Home" style="fillColor=none;strokeColor=none;fontSize=14;fontColor=#ffffff;align=center;" parent="5" vertex="1"><mxGeometry width="70" height="40" relative="1" as="geometry"><mxPoint x="70" y="10" as="offset"/></mxGeometry></mxCell><mxCell id="7" value="Create" style="fillColor=none;strokeColor=none;fontSize=14;fontColor=#9A9DA0;align=center;" parent="5" vertex="1"><mxGeometry width="70" height="40" relative="1" as="geometry"><mxPoint x="140" y="10" as="offset"/></mxGeometry></mxCell><mxCell id="8" value="About" style="fillColor=none;strokeColor=none;fontSize=14;fontColor=#9A9DA0;align=center;spacingRight=0;" parent="5" vertex="1"><mxGeometry width="80" height="40" relative="1" as="geometry"><mxPoint x="210" y="10" as="offset"/></mxGeometry></mxCell><mxCell id="9" value="" style="verticalLabelPosition=bottom;shadow=0;dashed=0;align=center;html=1;verticalAlign=top;strokeWidth=1;shape=mxgraph.mockup.graphics.simpleIcon;strokeColor=#999999;fontColor=#9A9DA0;" parent="5" vertex="1"><mxGeometry x="20" y="20" width="40" height="20" as="geometry"/></mxCell></root></mxGraphModel></diagram><diagram name="About" id="GYNYL5QuoMb-3LQcnNDZ"><mxGraphModel dx="1165" dy="735" grid="1" gridSize="10" guides="1" tooltips="1" connect="1" arrows="1" fold="1" page="1" pageScale="1" pageWidth="850" pageHeight="1100" math="0" shadow="0"><root><mxCell id="0"/><mxCell id="1" parent="0"/><mxCell id="2" value="&lt;i&gt;TODO&lt;/i&gt;" style="strokeWidth=1;shadow=0;dashed=0;align=center;html=1;shape=mxgraph.mockup.containers.browserWindow;rSize=0;strokeColor=#666666;strokeColor2=#008cff;strokeColor3=#c4c4c4;mainText=,;recursiveResize=0;" parent="1" vertex="1"><mxGeometry x="40" y="80" width="800" height="560" as="geometry"/></mxCell><mxCell id="3" value="About" style="strokeWidth=1;shadow=0;dashed=0;align=center;html=1;shape=mxgraph.mockup.containers.anchor;fontSize=17;fontColor=#666666;align=left;" parent="2" vertex="1"><mxGeometry x="60" y="12" width="110" height="26" as="geometry"/></mxCell><mxCell id="4" value="https://example.org/#about" style="strokeWidth=1;shadow=0;dashed=0;align=center;html=1;shape=mxgraph.mockup.containers.anchor;rSize=0;fontSize=17;fontColor=#666666;align=left;" parent="2" vertex="1"><mxGeometry x="130" y="60" width="250" height="26" as="geometry"/></mxCell><mxCell id="5" value="" style="html=1;shadow=0;dashed=0;fillColor=#343A40;strokeColor=none;fontSize=16;fontColor=#ffffff;align=left;spacing=15;" parent="2" vertex="1"><mxGeometry y="110" width="800" height="60" as="geometry"/></mxCell><mxCell id="6" value="Home" style="fillColor=none;strokeColor=none;fontSize=14;fontColor=#9A9DA0;align=center;" parent="5" vertex="1"><mxGeometry width="70" height="40" relative="1" as="geometry"><mxPoint x="70" y="10" as="offset"/></mxGeometry></mxCell><mxCell id="7" value="Create" style="fillColor=none;strokeColor=none;fontSize=14;fontColor=#9A9DA0;align=center;" parent="5" vertex="1"><mxGeometry width="70" height="40" relative="1" as="geometry"><mxPoint x="140" y="10" as="offset"/></mxGeometry></mxCell><mxCell id="8" value="About" style="fillColor=none;strokeColor=none;fontSize=14;fontColor=#FFFFFF;align=center;spacingRight=0;" parent="5" vertex="1"><mxGeometry width="80" height="40" relative="1" as="geometry"><mxPoint x="210" y="10" as="offset"/></mxGeometry></mxCell><mxCell id="9" value="" style="verticalLabelPosition=bottom;shadow=0;dashed=0;align=center;html=1;verticalAlign=top;strokeWidth=1;shape=mxgraph.mockup.graphics.simpleIcon;strokeColor=#999999;fontColor=#9A9DA0;" parent="5" vertex="1"><mxGeometry x="20" y="20" width="40" height="20" as="geometry"/></mxCell></root></mxGraphModel></diagram></mxfile>